<svg id="Layer_1" data-name="Layer 1" xmlns="http://www.w3.org/2000/svg" viewBox="0 0 93.33 14.44"><defs><style>.cls-1{fill:#c2c1c1;}</style></defs><title>ICON_NEW</title><path class="cls-1" d="M37.11,6.31c-1.29,0-31,.69-31,.69s29.71.69,31,.69S38.71,7,38.71,7,38.4,6.31,37.11,6.31Z"/><path class="cls-1" d="M56.11,6.31c1.29,0,31,.69,31,.69s-29.71.69-31,.69S54.51,7,54.51,7,54.82,6.31,56.11,6.31Z"/><path class="cls-1" d="M42.4,5.93A8.94,8.94,0,0,1,45.27,7,8.94,8.94,0,0,1,42.4,8.07,2.63,2.63,0,0,1,40.66,7,2.63,2.63,0,0,1,42.4,5.93Z"/><path class="cls-1" d="M44.22,4.88a8.17,8.17,0,0,1,1.05,1.74,8,8,0,0,1-1.75-1A2,2,0,0,1,43,4.39,2,2,0,0,1,44.22,4.88Z"/><path class="cls-1" d="M44.22,9.11a7.93,7.93,0,0,0,1.05-1.74,8.16,8.16,0,0,0-1.75,1A2,2,0,0,0,43,9.61,2,2,0,0,0,44.22,9.11Z"/><path class="cls-1" d="M50.82,5.93A8.94,8.94,0,0,0,48,7a8.94,8.94,0,0,0,2.87,1.07A2.63,2.63,0,0,0,52.56,7,2.63,2.63,0,0,0,50.82,5.93Z"/><path class="cls-1" d="M49,4.88a8.17,8.17,0,0,0-1,1.74,8,8,0,0,0,1.75-1,2,2,0,0,0,.49-1.19A2,2,0,0,0,49,4.88Z"/><path class="cls-1" d="M49,9.11a7.93,7.93,0,0,1-1-1.74,8.16,8.16,0,0,1,1.75,1,2,2,0,0,1,.49,1.19A2,2,0,0,1,49,9.11Z"/><path class="cls-1" d="M53.49,8.17A5,5,0,0,0,52.33,7,4.58,4.58,0,0,0,53,6.46a4.58,4.58,0,0,0,.54-.63A5.2,5.2,0,0,0,54.67,7a4.74,4.74,0,0,0-.64.53A5.59,5.59,0,0,0,53.49,8.17Z"/><path class="cls-1" d="M39.72,8.17A5,5,0,0,0,38.55,7a4.73,4.73,0,0,0,.64-.54,5.39,5.39,0,0,0,.54-.63A5.15,5.15,0,0,0,40.89,7a4.58,4.58,0,0,0-.63.53A5.59,5.59,0,0,0,39.72,8.17Z"/><path class="cls-1" d="M46.6,8.87A8.05,8.05,0,0,0,44.74,7a8,8,0,0,0,1-.86,8.72,8.72,0,0,0,.87-1A8.21,8.21,0,0,0,48.48,7a6.68,6.68,0,0,0-1,.87A6.68,6.68,0,0,0,46.6,8.87Z"/></svg>